# xmcd CD database file
#
# Track frame offsets:
#	150
#	30021
#	72949
#	95214
#	113430
#	138965
#	167892
#	192555
#	210746
#
# Disc length: 3259 seconds
#
# Revision: 0
# Processed by: cddbd v1.5.2PL0 Copyright (c) Steve Scherf et al.
# Submitted via: CDex 1.51
#
DISCID=790cb909
DTITLE=Arturo Stable - Notes on Canvas
DYEAR=2006
DGENRE=Jazz
TTITLE0=1 La Jungla
TTITLE1=2 Gernica
TTITLE2=3 Impression-Sunrise
TTITLE3=4 Frida Kahlo
TTITLE4=5 Gioconda
TTITLE5=6 Van Gogh's Portrait
TTITLE6=7 La Ventana Magica
TTITLE7=8 Composition #8
TTITLE8=9 Clock Explotion
EXTD=YEAR: 2006
EXTT0=
EXTT1=
EXTT2=
EXTT3=
EXTT4=
EXTT5=
EXTT6=
EXTT7=
EXTT8=
PLAYORDER=
